<svg xmlns="http://www.w3.org/2000/svg" viewBox="0 0 720 56" role="img" aria-label="Barbed wire divider">
  <rect width="720" height="56" fill="none"/>
  <g stroke="#8C4B32" stroke-width="2.2" stroke-linecap="round">
    <line x1="8" y1="20" x2="712" y2="20"/>
    <line x1="8" y1="36" x2="712" y2="36" opacity="0.75"/>
  </g>
  <g stroke="#4B3728" stroke-width="1.6" stroke-linecap="round">
    <g transform="translate(48 0)">
      <line x1="-8" y1="16" x2="8" y2="24"/>
      <line x1="-8" y1="24" x2="8" y2="16"/>
      <circle cx="0" cy="20" r="1.8" fill="#8C4B32"/>
    </g>
    <g transform="translate(144 0)">
      <line x1="-8" y1="32" x2="8" y2="40"/>
      <line x1="-8" y1="40" x2="8" y2="32"/>
      <circle cx="0" cy="36" r="1.8" fill="#8C4B32"/>
    </g>
    <g transform="translate(240 0)">
      <line x1="-8" y1="16" x2="8" y2="24"/>
      <line x1="-8" y1="24" x2="8" y2="16"/>
      <circle cx="0" cy="20" r="1.8" fill="#8C4B32"/>
    </g>
    <g transform="translate(336 0)">
      <line x1="-8" y1="32" x2="8" y2="40"/>
      <line x1="-8" y1="40" x2="8" y2="32"/>
      <circle cx="0" cy="36" r="1.8" fill="#8C4B32"/>
    </g>
    <g transform="translate(432 0)">
      <line x1="-8" y1="16" x2="8" y2="24"/>
      <line x1="-8" y1="24" x2="8" y2="16"/>
      <circle cx="0" cy="20" r="1.8" fill="#8C4B32"/>
    </g>
    <g transform="translate(528 0)">
      <line x1="-8" y1="32" x2="8" y2="40"/>
      <line x1="-8" y1="40" x2="8" y2="32"/>
      <circle cx="0" cy="36" r="1.8" fill="#8C4B32"/>
    </g>
    <g transform="translate(624 0)">
      <line x1="-8" y1="16" x2="8" y2="24"/>
      <line x1="-8" y1="24" x2="8" y2="16"/>
      <circle cx="0" cy="20" r="1.8" fill="#8C4B32"/>
    </g>
  </g>
</svg>
