<svg xmlns="http://www.w3.org/2000/svg" viewBox="0 0 96 96" role="img" aria-label="Dove mark">
  <defs>
    <filter id="roughen" x="-10%" y="-10%" width="120%" height="120%">
      <feTurbulence type="fractalNoise" baseFrequency="0.8" numOctaves="1" seed="7" result="noise"/>
      <feDisplacementMap in="SourceGraphic" in2="noise" scale="0.4"/>
    </filter>
  </defs>
  <g filter="url(#roughen)" fill="#AF9B64" stroke="#4B3728" stroke-width="1.4" stroke-linecap="round" stroke-linejoin="round">
    <path d="M14 54c8-3 16-5 22-10 7-6 11-15 19-21 8-6 20-6 27 2-9 1-14 9-13 16 1 8 10 13 17 12-6 7-15 11-24 11-10 0-20-4-28-10-6 5-13 8-20 8z"/>
    <path d="M51 48c5 4 12 6 18 5-5 4-11 6-18 5z" fill="#8C4B32" opacity="0.65"/>
    <circle cx="58" cy="36" r="1.8" fill="#2D2823"/>
    <path d="M70 61c5 1 9 4 12 8-6 0-11-2-14-6z" fill="#697350"/>
    <path d="M72 66c6 0 10 3 13 7-6 0-11-2-14-6z" fill="#697350" opacity="0.8"/>
  </g>
</svg>
