<svg xmlns="http://www.w3.org/2000/svg" viewBox="0 0 160 160" role="img" aria-label="Tribal corner ornament">
  <rect width="160" height="160" fill="none"/>
  <g fill="none" stroke="#4B3728" stroke-linecap="round" stroke-linejoin="round">
    <path d="M10 16c46 2 76 23 91 60 10 24 28 41 49 52" stroke-width="4"/>
    <path d="M18 42c30 0 52 10 65 30 9 14 20 24 37 31" stroke-width="3" opacity="0.82"/>
    <path d="M36 10c12 20 13 43 4 67-7 19-7 35 0 49" stroke-width="3"/>
    <path d="M63 19c7 14 8 29 3 45-4 12-3 23 2 34" stroke-width="2.4" opacity="0.8"/>
    <path d="M10 10c17 1 30 8 38 21-11 3-20 9-27 17" stroke-width="2.2"/>
    <path d="M88 74c13 6 22 15 28 28-12-1-22 2-30 9" stroke-width="2.2"/>
  </g>
</svg>
